{
  "accessors": [
    {
      "bufferView": 2,
      "componentType": 5126,
      "count": 2218,
      "max": [
        1.1189450025558472,
        1.0519959926605225,
        0.2310740053653717
      ],
      "min": [
        -1.0576499700546265,
        -1.0477449893951416,
        -1.1058130264282227
      ],
      "type": "VEC3"
    },
    {
      "bufferView": 2,
      "byteOffset": 26616,
      "componentType": 5126,
      "count": 2218,
      "max": [
        0.99337202310562134,
        0.99754816293716431,
        0.52421635389328003
      ],
      "min": [
        -0.99984854459762573,
        -0.99927234649658203,
        -0.99624276161193848
      ],
      "type": "VEC3"
    },
    {
      "bufferView": 1,
      "componentType": 5126,
      "count": 2218,
      "max": [
        0,
        0
      ],
      "min": [
        0,
        0
      ],
      "type": "VEC2"
    },
    {
      "bufferView": 0,
      "componentType": 5125,
      "count": 2319,
      "max": [
        2217
      ],
      "min": [
        0
      ],
      "type": "SCALAR"
    },
    {
      "bufferView": 2,
      "byteOffset": 53232,
      "componentType": 5126,
      "count": 2288,
      "max": [
        1.0619939565658569,
        1.0075689554214478,
        0.8374369740486145
      ],
      "min": [
        -0.97688400745391846,
        -1.0477449893951416,
        -0.040073998272418976
      ],
      "type": "VEC3"
    },
    {
      "bufferView": 2,
      "byteOffset": 80688,
      "componentType": 5126,
      "count": 2288,
      "max": [
        0.97957032918930054,
        0.99793237447738647,
        0.99992549419403076
      ],
      "min": [
        -0.99912256002426147,
        -0.98313963413238525,
        -0.23550459742546082
      ],
      "type": "VEC3"
    },
    {
      "bufferView": 1,
      "byteOffset": 17744,
      "componentType": 5126,
      "count": 2288,
      "max": [
        0,
        0
      ],
      "min": [
        0,
        0
      ],
      "type": "VEC2"
    },
    {
      "bufferView": 0,
      "byteOffset": 9276,
      "componentType": 5125,
      "count": 2889,
      "max": [
        2287
      ],
      "min": [
        0
      ],
      "type": "SCALAR"
    },
    {
      "bufferView": 2,
      "byteOffset": 108144,
      "componentType": 5126,
      "count": 404,
      "max": [
        0.33320900797843933,
        0.18474400043487549,
        0.77763402462005615
      ],
      "min": [
        0.22110399603843689,
        0.084288999438285828,
        0.68400198221206665
      ],
      "type": "VEC3"
    },
    {
      "bufferView": 2,
      "byteOffset": 112992,
      "componentType": 5126,
      "count": 404,
      "max": [
        0.99032759666442871,
        0.95490741729736328,
        0.9966120719909668
      ],
      "min": [
        -0.99987554550170898,
        -0.99997246265411377,
        -0.97885847091674805
      ],
      "type": "VEC3"
    },
    {
      "bufferView": 0,
      "byteOffset": 20832,
      "componentType": 5125,
      "count": 408,
      "max": [
        403
      ],
      "min": [
        0
      ],
      "type": "SCALAR"
    },
    {
      "bufferView": 2,
      "byteOffset": 117840,
      "componentType": 5126,
      "count": 404,
      "max": [
        0.15974299609661102,
        0.10501199960708618,
        0.71464997529983521
      ],
      "min": [
        -0.037666000425815582,
        -0.16897299885749817,
        0.50638997554779053
      ],
      "type": "VEC3"
    },
    {
      "bufferView": 2,
      "byteOffset": 122688,
      "componentType": 5126,
      "count": 404,
      "max": [
        0.99281585216522217,
        0.92245978116989136,
        0.99713599681854248
      ],
      "min": [
        -0.99842220544815063,
        -0.99357855319976807,
        -0.95169258117675781
      ],
      "type": "VEC3"
    },
    {
      "bufferView": 0,
      "byteOffset": 22464,
      "componentType": 5125,
      "count": 408,
      "max": [
        403
      ],
      "min": [
        0
      ],
      "type": "SCALAR"
    },
    {
      "bufferView": 2,
      "byteOffset": 127536,
      "componentType": 5126,
      "count": 1440,
      "max": [
        0.21066099405288696,
        0.40474599599838257,
        0.73323202133178711
      ],
      "min": [
        0.080527998507022858,
        0.2416130006313324,
        0.65171200037002563
      ],
      "type": "VEC3"
    },
    {
      "bufferView": 2,
      "byteOffset": 144816,
      "componentType": 5126,
      "count": 1440,
      "max": [
        1,
        0.99953478574752808,
        0.99907082319259644
      ],
      "min": [
        -1,
        -0.9990314245223999,
        -0.99999916553497314
      ],
      "type": "VEC3"
    },
    {
      "bufferView": 0,
      "byteOffset": 24096,
      "componentType": 5125,
      "count": 2160,
      "max": [
        1439
      ],
      "min": [
        0
      ],
      "type": "SCALAR"
    },
    {
      "bufferView": 2,
      "byteOffset": 162096,
      "componentType": 5126,
      "count": 4,
      "max": [
        0.0077700000256299973,
        0.43998599052429199,
        0.60964298248291016
      ],
      "min": [
        -0.065940000116825104,
        0.078456997871398926,
        0.58419299125671387
      ],
      "type": "VEC3"
    },
    {
      "bufferView": 0,
      "byteOffset": 32736,
      "componentType": 5125,
      "count": 4,
      "max": [
        3
      ],
      "min": [
        0
      ],
      "type": "SCALAR"
    },
    {
      "bufferView": 2,
      "byteOffset": 162144,
      "componentType": 5126,
      "count": 455,
      "max": [
        0.17527399957180023,
        0.44204801321029663,
        0.71630597114562988
      ],
      "min": [
        -0.90829497575759888,
        -0.65002501010894775,
        -0.80785202980041504
      ],
      "type": "VEC3"
    },
    {
      "bufferView": 2,
      "byteOffset": 167604,
      "componentType": 5126,
      "count": 455,
      "max": [
        0.78982692956924438,
        0.7782406210899353,
        -0.0023999698460102081
      ],
      "min": [
        -0.060402117669582367,
        -0.039200522005558014,
        -0.99973255395889282
      ],
      "type": "VEC3"
    },
    {
      "bufferView": 1,
      "byteOffset": 36048,
      "componentType": 5126,
      "count": 455,
      "max": [
        0,
        0
      ],
      "min": [
        0,
        0
      ],
      "type": "VEC2"
    },
    {
      "bufferView": 0,
      "byteOffset": 32752,
      "componentType": 5125,
      "count": 471,
      "max": [
        454
      ],
      "min": [
        0
      ],
      "type": "SCALAR"
    },
    {
      "bufferView": 2,
      "byteOffset": 173064,
      "componentType": 5126,
      "count": 1386,
      "max": [
        3.3643009662628174,
        3.099574089050293,
        2.1543068885803223
      ],
      "min": [
        0.24291500449180603,
        -1.3584799766540527,
        0.46712100505828857
      ],
      "type": "VEC3"
    },
    {
      "bufferView": 2,
      "byteOffset": 189696,
      "componentType": 5126,
      "count": 1386,
      "max": [
        0.98470669984817505,
        0.99978941679000854,
        0.9984394907951355
      ],
      "min": [
        -0.98506742715835571,
        -0.98349201679229736,
        -0.99690514802932739
      ],
      "type": "VEC3"
    },
    {
      "bufferView": 1,
      "byteOffset": 39688,
      "componentType": 5126,
      "count": 1386,
      "max": [
        0.81818097829818726,
        0.31492099165916443
      ],
      "min": [
        0,
        0
      ],
      "type": "VEC2"
    },
    {
      "bufferView": 0,
      "byteOffset": 34636,
      "componentType": 5125,
      "count": 1386,
      "max": [
        1385
      ],
      "min": [
        0
      ],
      "type": "SCALAR"
    },
    {
      "bufferView": 2,
      "byteOffset": 206328,
      "componentType": 5126,
      "count": 560,
      "max": [
        0.52991902828216553,
        0.81379300355911255,
        0.92292600870132446
      ],
      "min": [
        0.021563999354839325,
        -0.66769301891326904,
        0.52968299388885498
      ],
      "type": "VEC3"
    },
    {
      "bufferView": 2,
      "byteOffset": 213048,
      "componentType": 5126,
      "count": 560,
      "max": [
        0.98886615037918091,
        0.9854358434677124,
        0.98811721801757812
      ],
      "min": [
        -0.99656397104263306,
        -0.99525988101959229,
        -0.98811721801757812
      ],
      "type": "VEC3"
    },
    {
      "bufferView": 1,
      "byteOffset": 50776,
      "componentType": 5126,
      "count": 560,
      "max": [
        1,
        1
      ],
      "min": [
        0,
        0.0099999997764825821
      ],
      "type": "VEC2"
    },
    {
      "bufferView": 0,
      "byteOffset": 40180,
      "componentType": 5125,
      "count": 924,
      "max": [
        559
      ],
      "min": [
        0
      ],
      "type": "SCALAR"
    },
    {
      "bufferView": 2,
      "byteOffset": 219768,
      "componentType": 5126,
      "count": 3584,
      "max": [
        0.63975101709365845,
        0.94856899976730347,
        1.2910870313644409
      ],
      "min": [
        -0.1024169996380806,
        -0.79722499847412109,
        0.53201097249984741
      ],
      "type": "VEC3"
    },
    {
      "bufferView": 2,
      "byteOffset": 262776,
      "componentType": 5126,
      "count": 3584,
      "max": [
        0.91731685400009155,
        0.99751877784729004,
        0.8522038459777832
      ],
      "min": [
        -0.98740881681442261,
        -0.99699759483337402,
        -0.99913609027862549
      ],
      "type": "VEC3"
    },
    {
      "bufferView": 1,
      "byteOffset": 55256,
      "componentType": 5126,
      "count": 3584,
      "max": [
        0,
        0
      ],
      "min": [
        0,
        0
      ],
      "type": "VEC2"
    },
    {
      "bufferView": 0,
      "byteOffset": 43876,
      "componentType": 5125,
      "count": 5334,
      "max": [
        3583
      ],
      "min": [
        0
      ],
      "type": "SCALAR"
    }
  ],
  "asset": {
    "extras": {
      "author": "AFCM (https://sketchfab.com/afcm.contact)",
      "license": "CC-BY-4.0 (http://creativecommons.org/licenses/by/4.0/)",
      "source": "https://sketchfab.com/3d-models/low-poly-skysland-3061ad3253ad4abcbe9b8b8165b320d4",
      "title": "Low Poly - Skysland"
    },
    "generator": "Sketchfab-9.55.0",
    "version": "2.0"
  },
  "bufferViews": [
    {
      "buffer": 0,
      "byteLength": 65212,
      "byteOffset": 0,
      "name": "floatBufferViews",
      "target": 34963
    },
    {
      "buffer": 0,
      "byteLength": 83928,
      "byteOffset": 65212,
      "byteStride": 8,
      "name": "floatBufferViews",
      "target": 34962
    },
    {
      "buffer": 0,
      "byteLength": 305784,
      "byteOffset": 149140,
      "byteStride": 12,
      "name": "floatBufferViews",
      "target": 34962
    }
  ],
  "buffers": [
    {
      "byteLength": 454924,
      "uri": "scene.bin"
    }
  ],
  "materials": [
    {
      "doubleSided": true,
      "emissiveFactor": [
        0,
        0,
        0
      ],
      "name": "Clouds",
      "pbrMetallicRoughness": {
        "baseColorFactor": [
          0.81036995104363518,
          0.80314029363633732,
          0.78623501616046654,
          1
        ],
        "metallicFactor": 0,
        "roughnessFactor": 0.45000000000000001
      }
    },
    {
      "doubleSided": true,
      "emissiveFactor": [
        0,
        0,
        0
      ],
      "name": "Dirt",
      "pbrMetallicRoughness": {
        "baseColorFactor": [
          0.035104900000000001,
          0.013525199999999999,
          0.00358311,
          1
        ],
        "metallicFactor": 0,
        "roughnessFactor": 0.65000000000000002
      }
    },
    {
      "doubleSided": true,
      "emissiveFactor": [
        0,
        0,
        0
      ],
      "name": "Grass",
      "pbrMetallicRoughness": {
        "baseColorFactor": [
          0.023208800000000002,
          0.17582500000000001,
          0.0209185,
          1
        ],
        "metallicFactor": 0,
        "roughnessFactor": 0.5
      }
    },
    {
      "doubleSided": true,
      "emissiveFactor": [
        0,
        0,
        0
      ],
      "name": "bank",
      "pbrMetallicRoughness": {
        "baseColorFactor": [
          0.051548400000000001,
          0.0161735,
          0.0054984600000000002,
          1
        ],
        "metallicFactor": 0,
        "roughnessFactor": 0.5
      }
    },
    {
      "doubleSided": true,
      "emissiveFactor": [
        0,
        0,
        0
      ],
      "name": "stone2",
      "pbrMetallicRoughness": {
        "baseColorFactor": [
          0.15090114725019055,
          0.15090114725019055,
          0.15090114725019055,
          1
        ],
        "metallicFactor": 0,
        "roughnessFactor": 0.59090900000000002
      }
    },
    {
      "doubleSided": true,
      "emissiveFactor": [
        0,
        0,
        0
      ],
      "name": "stone2_adapted",
      "pbrMetallicRoughness": {
        "baseColorFactor": [
          0.137349,
          0.137349,
          0.137349,
          1
        ],
        "metallicFactor": 0,
        "roughnessFactor": 0.59090900000000002
      }
    },
    {
      "doubleSided": true,
      "emissiveFactor": [
        0,
        0,
        0
      ],
      "name": "stones_adapted",
      "pbrMetallicRoughness": {
        "baseColorFactor": [
          0.068786299999999995,
          0.068786299999999995,
          0.068786299999999995,
          1
        ],
        "metallicFactor": 0,
        "roughnessFactor": 0.5
      }
    },
    {
      "doubleSided": true,
      "emissiveFactor": [
        0,
        0,
        0
      ],
      "name": "tree_adapted",
      "pbrMetallicRoughness": {
        "baseColorFactor": [
          0.0018517903387824622,
          0.035640812458961862,
          0,
          1
        ],
        "metallicFactor": 0,
        "roughnessFactor": 0.5
      }
    },
    {
      "doubleSided": true,
      "emissiveFactor": [
        0,
        0,
        0
      ],
      "name": "water_adapted",
      "pbrMetallicRoughness": {
        "baseColorFactor": [
          0.237293,
          0.55773300000000003,
          1,
          1
        ],
        "metallicFactor": 0,
        "roughnessFactor": 0.5
      }
    }
  ],
  "meshes": [
    {
      "primitives": [
        {
          "attributes": {
            "NORMAL": 1,
            "POSITION": 0,
            "TEXCOORD_0": 2
          },
          "indices": 3,
          "material": 1,
          "mode": 4
        }
      ]
    },
    {
      "primitives": [
        {
          "attributes": {
            "NORMAL": 5,
            "POSITION": 4,
            "TEXCOORD_0": 6
          },
          "indices": 7,
          "material": 2,
          "mode": 4
        }
      ]
    },
    {
      "primitives": [
        {
          "attributes": {
            "NORMAL": 9,
            "POSITION": 8
          },
          "indices": 10,
          "material": 4,
          "mode": 4
        }
      ]
    },
    {
      "primitives": [
        {
          "attributes": {
            "NORMAL": 12,
            "POSITION": 11
          },
          "indices": 13,
          "material": 5,
          "mode": 4
        }
      ]
    },
    {
      "primitives": [
        {
          "attributes": {
            "NORMAL": 15,
            "POSITION": 14
          },
          "indices": 16,
          "material": 6,
          "mode": 4
        }
      ]
    },
    {
      "primitives": [
        {
          "attributes": {
            "POSITION": 17
          },
          "indices": 18,
          "material": 8,
          "mode": 1
        }
      ]
    },
    {
      "primitives": [
        {
          "attributes": {
            "NORMAL": 20,
            "POSITION": 19,
            "TEXCOORD_0": 21
          },
          "indices": 22,
          "material": 8,
          "mode": 4
        }
      ]
    },
    {
      "primitives": [
        {
          "attributes": {
            "NORMAL": 24,
            "POSITION": 23,
            "TEXCOORD_0": 25
          },
          "indices": 26,
          "material": 0,
          "mode": 4
        }
      ]
    },
    {
      "primitives": [
        {
          "attributes": {
            "NORMAL": 28,
            "POSITION": 27,
            "TEXCOORD_0": 29
          },
          "indices": 30,
          "material": 3,
          "mode": 4
        }
      ]
    },
    {
      "primitives": [
        {
          "attributes": {
            "NORMAL": 32,
            "POSITION": 31,
            "TEXCOORD_0": 33
          },
          "indices": 34,
          "material": 7,
          "mode": 4
        }
      ]
    }
  ],
  "nodes": [
    {
      "children": [
        1
      ],
      "name": "RootNode (gltf orientation matrix)",
      "rotation": [
        -0.70710678118654746,
        -0,
        -0,
        0.70710678118654757
      ]
    },
    {
      "children": [
        2
      ],
      "name": "RootNode (model correction matrix)"
    },
    {
      "children": [
        3,
        4,
        5,
        6,
        7,
        8,
        9,
        10,
        11,
        12
      ],
      "name": "low_poly_smart.obj.cleaner.materialmerger.gles"
    },
    {
      "mesh": 0,
      "name": ""
    },
    {
      "mesh": 1,
      "name": ""
    },
    {
      "mesh": 2,
      "name": ""
    },
    {
      "mesh": 3,
      "name": ""
    },
    {
      "mesh": 4,
      "name": ""
    },
    {
      "mesh": 5,
      "name": ""
    },
    {
      "mesh": 6,
      "name": ""
    },
    {
      "mesh": 7,
      "name": ""
    },
    {
      "mesh": 8,
      "name": ""
    },
    {
      "mesh": 9,
      "name": ""
    }
  ],
  "scene": 0,
  "scenes": [
    {
      "name": "OSG_Scene",
      "nodes": [
        0
      ]
    }
  ]
}

